<svg width="43" height="18" viewBox="0 0 43 18" fill="none" xmlns="http://www.w3.org/2000/svg">
<g clip-path="url(#clip0)">
<path d="M20.36 5.78C20.3354 5.79648 20.3152 5.8188 20.3012 5.84496C20.2873 5.87113 20.28 5.90035 20.28 5.93V15.28C20.2844 15.6936 20.4011 16.0982 20.6178 16.4505C20.8345 16.8028 21.1429 17.0895 21.51 17.28C21.82 17.4372 22.1625 17.5194 22.51 17.52H22.56C22.9077 17.5205 23.2505 17.4382 23.56 17.28C23.9272 17.0895 24.2356 16.8028 24.4523 16.4505C24.6689 16.0982 24.7857 15.6936 24.79 15.28V5.93C24.7901 5.90035 24.7828 5.87113 24.7689 5.84496C24.7549 5.8188 24.7347 5.79648 24.71 5.78C24.0822 5.31937 23.3237 5.071 22.545 5.071C21.7663 5.071 21.0079 5.31937 20.38 5.78H20.36Z" fill="#BA3F42"/>
<path d="M22.53 7.05099e-06C20.4318 0.00648632 18.4056 0.76586 16.82 2.14001C16.7876 2.17356 16.7695 2.21837 16.7695 2.26501C16.7695 2.31164 16.7876 2.35645 16.82 2.39001C17.5539 3.30605 18.1255 4.34101 18.51 5.45001C18.5199 5.48076 18.5378 5.50829 18.5619 5.52973C18.5861 5.55116 18.6155 5.56571 18.6472 5.57184C18.6789 5.57798 18.7117 5.57548 18.7421 5.5646C18.7725 5.55372 18.7994 5.53486 18.82 5.51001C19.2893 4.97631 19.8669 4.54877 20.5144 4.25589C21.1619 3.96301 21.8644 3.81152 22.575 3.81152C23.2857 3.81152 23.9882 3.96301 24.6356 4.25589C25.2831 4.54877 25.8608 4.97631 26.33 5.51001C26.3518 5.53449 26.3795 5.55292 26.4105 5.56351C26.4415 5.5741 26.4748 5.57649 26.507 5.57045C26.5392 5.56441 26.5693 5.55015 26.5943 5.52904C26.6194 5.50794 26.6386 5.48071 26.65 5.45001C27.0263 4.3394 27.5949 3.30362 28.33 2.39001C28.3624 2.35645 28.3805 2.31164 28.3805 2.26501C28.3805 2.21837 28.3624 2.17356 28.33 2.14001C26.722 0.743894 24.6595 -0.0170826 22.53 7.05099e-06V7.05099e-06Z" fill="#BA3F42"/>
<path d="M39.72 12.39C39.2269 12.8617 38.6425 13.2275 38.0027 13.4648C37.363 13.7021 36.6814 13.806 36 13.77C34.6739 13.7196 33.4222 13.1445 32.5201 12.1712C31.6181 11.1979 31.1396 9.90608 31.19 8.58C31.2404 7.25392 31.8155 6.00217 32.7888 5.10012C33.7621 4.19807 35.0539 3.71961 36.38 3.77C37.5763 3.79961 38.7224 4.25732 39.61 5.06C39.6452 5.09304 39.6917 5.11144 39.74 5.11144C39.7883 5.11144 39.8348 5.09304 39.87 5.06L42.34 2.69C42.3737 2.65313 42.3924 2.60497 42.3924 2.555C42.3924 2.50503 42.3737 2.45687 42.34 2.42C41.0993 1.23032 39.5364 0.43145 37.8455 0.122668C36.1546 -0.186113 34.4102 0.00880998 32.8292 0.683212C31.2481 1.35761 29.9001 2.48176 28.9526 3.91595C28.0052 5.35013 27.5001 7.03112 27.5001 8.75C27.5001 10.4689 28.0052 12.1499 28.9526 13.5841C29.9001 15.0182 31.2481 16.1424 32.8292 16.8168C34.4102 17.4912 36.1546 17.6861 37.8455 17.3773C39.5364 17.0686 41.0993 16.2697 42.34 15.08C42.373 15.0448 42.3914 14.9983 42.3914 14.95C42.3914 14.9017 42.373 14.8552 42.34 14.82L39.97 12.35C39.9307 12.3248 39.8835 12.3149 39.8374 12.3223C39.7912 12.3297 39.7495 12.3538 39.72 12.39V12.39Z" fill="#BA3F42"/>
<path d="M15.65 3.33C15.6331 3.31085 15.6124 3.29551 15.5891 3.285C15.5658 3.27449 15.5406 3.26906 15.515 3.26906C15.4895 3.26906 15.4642 3.27449 15.441 3.285C15.4177 3.29551 15.3969 3.31085 15.38 3.33L12.92 5.75C12.8932 5.78231 12.8785 5.823 12.8785 5.865C12.8785 5.907 12.8932 5.94769 12.92 5.98C13.398 6.69491 13.6834 7.521 13.7489 8.37846C13.8143 9.23592 13.6575 10.0958 13.2935 10.8749C12.9296 11.6541 12.3709 12.3262 11.6713 12.8263C10.9717 13.3264 10.155 13.6377 9.30002 13.73C8.50421 13.8088 7.70111 13.6955 6.95812 13.3997C6.21514 13.1039 5.55394 12.6342 5.03003 12.03L14.6 2.46C14.619 2.44404 14.6342 2.42414 14.6446 2.40168C14.6551 2.37923 14.6605 2.35476 14.6605 2.33C14.6605 2.30524 14.6551 2.28077 14.6446 2.25831C14.6342 2.23586 14.619 2.21596 14.6 2.2C12.9171 0.730304 10.7322 -0.0337976 8.50009 0.0667179C6.268 0.167233 4.16063 1.12462 2.61659 2.73964C1.07254 4.35465 0.21075 6.50288 0.210571 8.73724C0.210393 10.9716 1.07184 13.12 2.61563 14.7352C4.15942 16.3505 6.26663 17.3082 8.4987 17.4091C10.7308 17.51 12.9158 16.7462 14.599 15.2768C16.2822 13.8073 17.3339 11.7454 17.5353 9.52017C17.7366 7.29491 17.0721 5.0777 15.68 3.33H15.65ZM3.82003 8.77C3.82003 7.44392 4.34681 6.17215 5.28449 5.23447C6.22217 4.29678 7.49394 3.77 8.82003 3.77C9.0431 3.75478 9.26695 3.75478 9.49003 3.77L3.82003 9.43C3.80479 9.21026 3.80479 8.98974 3.82003 8.77V8.77Z" fill="#BA3F42"/>
</g>
<rect x="0.5" y="0.5" width="41.4" height="16.57" stroke="black"/>
<defs>
<clipPath id="clip0">
</clipPath>
</defs>
</svg>
