<svg id="Layer_1" data-name="Layer 1" xmlns="http://www.w3.org/2000/svg" viewBox="0 0 87.63 17.57"><path d="M28.54,14.55a.18.18,0,0,0-.08.15v9.35a2.28,2.28,0,0,0,1.23,2,2.22,2.22,0,0,0,1,.24h.05a2.19,2.19,0,0,0,1-.24,2.28,2.28,0,0,0,1.23-2V14.7a.18.18,0,0,0-.08-.15,3.66,3.66,0,0,0-4.33,0Z" transform="translate(-8.18 -8.77)"/><path d="M30.71,8.77A8.71,8.71,0,0,0,25,10.91a.18.18,0,0,0,0,.25,10.28,10.28,0,0,1,1.69,3.06.18.18,0,0,0,.31,0,5,5,0,0,1,7.51,0,.19.19,0,0,0,.32,0,10,10,0,0,1,1.68-3.06.18.18,0,0,0,0-.25A8.69,8.69,0,0,0,30.71,8.77Z" transform="translate(-8.18 -8.77)"/><path d="M47.9,21.16a5,5,0,0,1-3.72,1.38,5,5,0,0,1,.38-10,5,5,0,0,1,3.23,1.29.19.19,0,0,0,.26,0l2.47-2.37a.2.2,0,0,0,0-.27,8.77,8.77,0,1,0,0,12.66.19.19,0,0,0,0-.26l-2.37-2.47A.19.19,0,0,0,47.9,21.16Z" transform="translate(-8.18 -8.77)"/><path d="M23.83,12.1h0a.18.18,0,0,0-.27,0L21.1,14.52a.18.18,0,0,0,0,.23,5,5,0,0,1-7.89,6.05l9.57-9.57a.17.17,0,0,0,0-.26,8.68,8.68,0,1,0,1.08,1.13ZM12,17.54a5,5,0,0,1,5-5,4.92,4.92,0,0,1,.67,0L12,18.2A4.77,4.77,0,0,1,12,17.54Z" transform="translate(-8.18 -8.77)"/><path d="M54.24,16.59v-5.5H58v1.09H55.48v1.07h2v1.06h-2v1.18h2.7v1.1Z" transform="translate(-8.18 -8.77)"/><path d="M58.86,15.12V13.66h-.61v-.94h.61V11.45h1.19v1.27h1v.94h-1v1.52a.67.67,0,0,0,.11.43.38.38,0,0,0,.35.16.75.75,0,0,0,.31-.06,2.07,2.07,0,0,0,.25-.15l.48.73a2,2,0,0,1-1.22.44,1.71,1.71,0,0,1-.88-.2A1.17,1.17,0,0,1,59,16,2.39,2.39,0,0,1,58.86,15.12Z" transform="translate(-8.18 -8.77)"/><path d="M64.91,15.42l.49.75-.29.19a2.72,2.72,0,0,1-.56.25,2.62,2.62,0,0,1-.85.11,2.29,2.29,0,0,1-1.14-.26,1.83,1.83,0,0,1-.73-.73,2.28,2.28,0,0,1-.26-1.09,2.18,2.18,0,0,1,.24-1,1.76,1.76,0,0,1,.68-.75,2,2,0,0,1,1.08-.29,1.83,1.83,0,0,1,1.05.29,1.71,1.71,0,0,1,.64.78,2.78,2.78,0,0,1,.22,1.15V15H62.73a.72.72,0,0,0,.28.54,1.05,1.05,0,0,0,.73.24,1.77,1.77,0,0,0,.75-.13A3.23,3.23,0,0,0,64.91,15.42Zm-2.18-1.17h1.63a.68.68,0,0,0-.09-.33.66.66,0,0,0-.26-.29.79.79,0,0,0-.45-.11.83.83,0,0,0-.46.11.78.78,0,0,0-.28.29A.68.68,0,0,0,62.73,14.25Z" transform="translate(-8.18 -8.77)"/><path d="M66.08,16.59V12.72h1.13l.05.49a1.63,1.63,0,0,1,.4-.38,1.19,1.19,0,0,1,.68-.18,1,1,0,0,1,.26,0l.22.05-.19,1a1.35,1.35,0,0,0-.43-.06.88.88,0,0,0-.94,1v1.91Z" transform="translate(-8.18 -8.77)"/><path d="M69.24,16.59V12.72h1.14l0,.42a1.39,1.39,0,0,1,.5-.37,1.61,1.61,0,0,1,.64-.14,1.42,1.42,0,0,1,1.06.4A1.59,1.59,0,0,1,73,14.2v2.39H71.83V14.36a.77.77,0,0,0-.17-.51.55.55,0,0,0-.44-.19.7.7,0,0,0-.59.26.91.91,0,0,0-.21.59v2.08Z" transform="translate(-8.18 -8.77)"/><path d="M73.78,12.15V11.09h1.27v1.06Zm0,4.44V12.72H75v3.87Z" transform="translate(-8.18 -8.77)"/><path d="M76.12,15.12V13.66h-.61v-.94h.61V11.45h1.19v1.27h1v.94h-1v1.52a.74.74,0,0,0,.11.43.39.39,0,0,0,.35.16.79.79,0,0,0,.32-.06,1.4,1.4,0,0,0,.24-.15l.48.73a1.93,1.93,0,0,1-1.22.44,1.65,1.65,0,0,1-.87-.2,1.12,1.12,0,0,1-.46-.57A2.38,2.38,0,0,1,76.12,15.12Z" transform="translate(-8.18 -8.77)"/><path d="M79.1,15.12v-2.4h1.19V15a.77.77,0,0,0,.16.52.59.59,0,0,0,.48.19.68.68,0,0,0,.56-.26,1,1,0,0,0,.19-.59V12.72h1.18v3.87H81.73l0-.41a1.39,1.39,0,0,1-.5.37,1.57,1.57,0,0,1-.64.14,1.46,1.46,0,0,1-1.06-.39A1.63,1.63,0,0,1,79.1,15.12Z" transform="translate(-8.18 -8.77)"/><path d="M83.67,16.59V12.72h1.14l0,.42a1.53,1.53,0,0,1,.51-.37,1.61,1.61,0,0,1,.64-.14,1.42,1.42,0,0,1,1.06.4,1.59,1.59,0,0,1,.39,1.17v2.39H86.25V14.36a.76.76,0,0,0-.16-.51.56.56,0,0,0-.45-.19.73.73,0,0,0-.59.26,1,1,0,0,0-.2.59v2.08Z" transform="translate(-8.18 -8.77)"/><path d="M91.39,15.42l.48.75-.29.19a2.49,2.49,0,0,1-.56.25,2.62,2.62,0,0,1-.85.11A2.22,2.22,0,0,1,89,16.46a1.86,1.86,0,0,1-.74-.73,2.28,2.28,0,0,1-.25-1.09,2.17,2.17,0,0,1,.23-1,1.85,1.85,0,0,1,.69-.75A1.92,1.92,0,0,1,90,12.59a1.83,1.83,0,0,1,1,.29,1.73,1.73,0,0,1,.65.78A3,3,0,0,1,92,14.81V15H89.2a.76.76,0,0,0,.28.54,1.08,1.08,0,0,0,.74.24,1.83,1.83,0,0,0,.75-.13A3.23,3.23,0,0,0,91.39,15.42ZM89.2,14.25h1.63a.8.8,0,0,0-.08-.33.75.75,0,0,0-.72-.4.79.79,0,0,0-.45.11.71.71,0,0,0-.28.29A.6.6,0,0,0,89.2,14.25Z" transform="translate(-8.18 -8.77)"/><path d="M92.36,16.15,93,15.4a1.63,1.63,0,0,0,.49.29,1.91,1.91,0,0,0,.6.11,1.13,1.13,0,0,0,.44-.07.25.25,0,0,0,.17-.25.24.24,0,0,0-.07-.18.66.66,0,0,0-.26-.14L93.75,15a3.34,3.34,0,0,1-.57-.22,1.36,1.36,0,0,1-.45-.37,1,1,0,0,1-.18-.59,1,1,0,0,1,.21-.64,1.65,1.65,0,0,1,.59-.42,2.23,2.23,0,0,1,.83-.15,3.23,3.23,0,0,1,.87.11,2.53,2.53,0,0,1,.68.33l-.5.78a2.45,2.45,0,0,0-.43-.22,1.38,1.38,0,0,0-.55-.1.83.83,0,0,0-.4.08.24.24,0,0,0-.12.21c0,.13.09.22.26.28l.69.21a1.75,1.75,0,0,1,.86.45,1.08,1.08,0,0,1,.27.77,1,1,0,0,1-.25.69,1.42,1.42,0,0,1-.64.41,2.53,2.53,0,0,1-.83.13,3.18,3.18,0,0,1-1-.14A1.83,1.83,0,0,1,92.36,16.15Z" transform="translate(-8.18 -8.77)"/><path d="M58.35,22.3l.85.78a2.47,2.47,0,0,1-.59.57,2.92,2.92,0,0,1-.8.43,3,3,0,0,1-1,.15,2.87,2.87,0,0,1-1.47-.37,2.65,2.65,0,0,1-1-1A3,3,0,0,1,54,21.36a3,3,0,0,1,.21-1.14,2.76,2.76,0,0,1,.58-.93,2.73,2.73,0,0,1,.9-.62,2.92,2.92,0,0,1,1.16-.22,3,3,0,0,1,1.34.28,2.56,2.56,0,0,1,.95.81l-.85.81a2,2,0,0,0-.58-.55,1.53,1.53,0,0,0-.81-.21,1.6,1.6,0,0,0-.86.23,1.68,1.68,0,0,0-.55.63,2,2,0,0,0-.19.88,1.92,1.92,0,0,0,.19.87,1.46,1.46,0,0,0,1.38.84,1.76,1.76,0,0,0,.66-.1,1.44,1.44,0,0,0,.45-.28A3,3,0,0,0,58.35,22.3Z" transform="translate(-8.18 -8.77)"/><path d="M59.58,22.15a2.07,2.07,0,0,1,.27-1,1.92,1.92,0,0,1,.73-.74,2,2,0,0,1,1.08-.28,2.06,2.06,0,0,1,1.09.28,1.9,1.9,0,0,1,.72.74,2.06,2.06,0,0,1,.26,1,2,2,0,0,1-.26,1,1.86,1.86,0,0,1-.72.75,2.06,2.06,0,0,1-1.09.28,2,2,0,0,1-1.08-.28,1.88,1.88,0,0,1-.73-.75A2,2,0,0,1,59.58,22.15Zm2.08,1a.83.83,0,0,0,.51-.15.9.9,0,0,0,.31-.38,1.21,1.21,0,0,0,0-1,1,1,0,0,0-.31-.38.83.83,0,0,0-.51-.15.88.88,0,0,0-.51.15,1,1,0,0,0-.31.38,1.21,1.21,0,0,0,0,1,.83.83,0,0,0,.31.38A.88.88,0,0,0,61.66,23.19Z" transform="translate(-8.18 -8.77)"/><path d="M64.36,24.09V20.22H65.5l0,.42a1.59,1.59,0,0,1,.5-.37,1.65,1.65,0,0,1,.65-.14,1.39,1.39,0,0,1,1,.4,1.55,1.55,0,0,1,.4,1.17v2.39H66.94V21.86a.76.76,0,0,0-.16-.51.59.59,0,0,0-.45-.19.72.72,0,0,0-.59.26,1,1,0,0,0-.2.59v2.08Z" transform="translate(-8.18 -8.77)"/><path d="M68.91,24.09V20.22h1.14l0,.42a1.39,1.39,0,0,1,.5-.37,1.61,1.61,0,0,1,.64-.14,1.42,1.42,0,0,1,1.06.4,1.59,1.59,0,0,1,.39,1.17v2.39H71.5V21.86a.82.82,0,0,0-.16-.51.59.59,0,0,0-.45-.19.7.7,0,0,0-.59.26.91.91,0,0,0-.21.59v2.08Z" transform="translate(-8.18 -8.77)"/><path d="M76.63,22.92l.48.75-.29.19a2.49,2.49,0,0,1-.56.25,2.62,2.62,0,0,1-.85.11A2.25,2.25,0,0,1,74.28,24a1.86,1.86,0,0,1-.74-.73,2.28,2.28,0,0,1-.25-1.09,2.17,2.17,0,0,1,.23-1,1.94,1.94,0,0,1,.69-.76,2,2,0,0,1,1.07-.28,1.91,1.91,0,0,1,1,.28,1.81,1.81,0,0,1,.65.79,2.91,2.91,0,0,1,.22,1.15v.2H74.44a.76.76,0,0,0,.28.54,1.08,1.08,0,0,0,.74.24,1.83,1.83,0,0,0,.75-.13A3.23,3.23,0,0,0,76.63,22.92Zm-2.19-1.17h1.63a.73.73,0,0,0-.08-.34.8.8,0,0,0-.27-.28.75.75,0,0,0-.45-.12.79.79,0,0,0-.45.12.75.75,0,0,0-.28.28A.66.66,0,0,0,74.44,21.75Z" transform="translate(-8.18 -8.77)"/><path d="M80.57,22.8l.69.78a1.88,1.88,0,0,1-.63.45,2.06,2.06,0,0,1-.93.19A2.21,2.21,0,0,1,78.62,24a2,2,0,0,1-.74-.74,2.1,2.1,0,0,1-.26-1.07,2,2,0,0,1,.27-1,2.06,2.06,0,0,1,1.81-1,2.32,2.32,0,0,1,.92.17,1.76,1.76,0,0,1,.65.47l-.72.77a1,1,0,0,0-.32-.26.9.9,0,0,0-.5-.12.81.81,0,0,0-.49.15.92.92,0,0,0-.32.38,1.17,1.17,0,0,0,0,1,1,1,0,0,0,.32.39.81.81,0,0,0,.49.15,1,1,0,0,0,.51-.12A1.31,1.31,0,0,0,80.57,22.8Z" transform="translate(-8.18 -8.77)"/><path d="M82.22,22.62V21.16h-.61v-.94h.61V19h1.19v1.27h1v.94h-1v1.52a.74.74,0,0,0,.11.43.38.38,0,0,0,.35.16.71.71,0,0,0,.31-.06,2.07,2.07,0,0,0,.25-.15l.48.73a2,2,0,0,1-1.22.44,1.71,1.71,0,0,1-.88-.2,1.16,1.16,0,0,1-.45-.57A2.47,2.47,0,0,1,82.22,22.62Z" transform="translate(-8.18 -8.77)"/></svg>