<svg id="Layer_1" data-name="Layer 1" xmlns="http://www.w3.org/2000/svg" viewBox="0 0 42.4 17.57"><defs><style>.cls-1{fill:#fff;}</style></defs><path class="cls-1" d="M28.54,14.56a.18.18,0,0,0-.08.15v9.35a2.28,2.28,0,0,0,1.23,2,2.22,2.22,0,0,0,1,.24h.05a2.19,2.19,0,0,0,1-.24,2.28,2.28,0,0,0,1.23-2V14.71a.18.18,0,0,0-.08-.15,3.66,3.66,0,0,0-4.33,0Z" transform="translate(-8.18 -8.78)"/><path class="cls-1" d="M30.71,8.78A8.76,8.76,0,0,0,25,10.92a.18.18,0,0,0,0,.25,10.28,10.28,0,0,1,1.69,3.06.18.18,0,0,0,.31.06,5,5,0,0,1,7.51,0,.19.19,0,0,0,.32-.06,10,10,0,0,1,1.68-3.06.18.18,0,0,0,0-.25A8.74,8.74,0,0,0,30.71,8.78Z" transform="translate(-8.18 -8.78)"/><path class="cls-1" d="M47.9,21.17a5,5,0,0,1-3.72,1.38,5,5,0,0,1,.38-10,5,5,0,0,1,3.23,1.29.19.19,0,0,0,.26,0l2.47-2.37a.2.2,0,0,0,0-.27,8.77,8.77,0,1,0,0,12.66.19.19,0,0,0,0-.26l-2.37-2.47A.19.19,0,0,0,47.9,21.17Z" transform="translate(-8.18 -8.78)"/><path class="cls-1" d="M23.83,12.11h0a.18.18,0,0,0-.27,0L21.1,14.53a.18.18,0,0,0,0,.23,5,5,0,0,1-3.62,7.75,5,5,0,0,1-4.27-1.7l9.57-9.57a.17.17,0,0,0,0-.26,8.68,8.68,0,1,0,1.08,1.13ZM12,17.55a5,5,0,0,1,5-5,4.92,4.92,0,0,1,.67,0L12,18.21A4.77,4.77,0,0,1,12,17.55Z" transform="translate(-8.18 -8.78)"/></svg>