<svg id="Layer_1" data-name="Layer 1" xmlns="http://www.w3.org/2000/svg" viewBox="0 0 41.79 13.14"><defs><style>.cls-1{fill:#181716;}</style></defs><path class="cls-1" d="M8.64,16.59v-5.5h3.77v1.09H9.89v1.07h2v1.06h-2v1.18h2.7v1.1Z" transform="translate(-8.43 -11.09)"/><path class="cls-1" d="M13.26,15.12V13.66h-.61v-.94h.61V11.45h1.19v1.27h1v.94h-1v1.52a.74.74,0,0,0,.11.43.39.39,0,0,0,.35.16.79.79,0,0,0,.32-.06c.08-.05.17-.09.25-.15l.47.73a1.93,1.93,0,0,1-1.22.44,1.65,1.65,0,0,1-.87-.2A1.12,1.12,0,0,1,13.4,16,2.38,2.38,0,0,1,13.26,15.12Z" transform="translate(-8.43 -11.09)"/><path class="cls-1" d="M19.32,15.42l.49.75-.3.19a2.61,2.61,0,0,1-.55.25,2.66,2.66,0,0,1-.85.11A2.29,2.29,0,0,1,17,16.46a1.86,1.86,0,0,1-.74-.73A2.28,2.28,0,0,1,16,14.64a2.3,2.3,0,0,1,.23-1,1.85,1.85,0,0,1,.69-.75A2,2,0,0,1,18,12.59a1.89,1.89,0,0,1,1.06.29,1.77,1.77,0,0,1,.64.78,3,3,0,0,1,.22,1.15V15H17.13a.76.76,0,0,0,.28.54,1.08,1.08,0,0,0,.74.24,1.77,1.77,0,0,0,.75-.13A3.23,3.23,0,0,0,19.32,15.42Zm-2.19-1.17h1.64a.68.68,0,0,0-.09-.33.8.8,0,0,0-.26-.29.79.79,0,0,0-.45-.11.81.81,0,0,0-.46.11.71.71,0,0,0-.28.29A.6.6,0,0,0,17.13,14.25Z" transform="translate(-8.43 -11.09)"/><path class="cls-1" d="M20.48,16.59V12.72h1.14l0,.49a1.9,1.9,0,0,1,.41-.38,1.15,1.15,0,0,1,.67-.18,1.06,1.06,0,0,1,.27,0l.22.05-.19,1a1.35,1.35,0,0,0-.43-.06,1,1,0,0,0-.68.25,1,1,0,0,0-.26.72v1.91Z" transform="translate(-8.43 -11.09)"/><path class="cls-1" d="M23.65,16.59V12.72h1.14l0,.42a1.59,1.59,0,0,1,.5-.37,1.65,1.65,0,0,1,.65-.14A1.39,1.39,0,0,1,27,13a1.55,1.55,0,0,1,.4,1.17v2.39H26.23V14.36a.76.76,0,0,0-.16-.51.59.59,0,0,0-.45-.19.72.72,0,0,0-.59.26,1,1,0,0,0-.2.59v2.08Z" transform="translate(-8.43 -11.09)"/><path class="cls-1" d="M28.19,12.15V11.09h1.27v1.06Zm0,4.44V12.72h1.19v3.87Z" transform="translate(-8.43 -11.09)"/><path class="cls-1" d="M30.53,15.12V13.66h-.61v-.94h.61V11.45h1.19v1.27h1v.94h-1v1.52a.74.74,0,0,0,.11.43.38.38,0,0,0,.35.16.71.71,0,0,0,.31-.06,2.07,2.07,0,0,0,.25-.15l.48.73a2,2,0,0,1-1.22.44,1.71,1.71,0,0,1-.88-.2,1.16,1.16,0,0,1-.45-.57A2.38,2.38,0,0,1,30.53,15.12Z" transform="translate(-8.43 -11.09)"/><path class="cls-1" d="M33.51,15.12v-2.4H34.7V15a.77.77,0,0,0,.16.52.57.57,0,0,0,.47.19.67.67,0,0,0,.56-.26,1,1,0,0,0,.2-.59V12.72h1.18v3.87H36.13l0-.41a1.48,1.48,0,0,1-.5.37,1.62,1.62,0,0,1-.65.14,1.42,1.42,0,0,1-1.05-.39A1.63,1.63,0,0,1,33.51,15.12Z" transform="translate(-8.43 -11.09)"/><path class="cls-1" d="M38.08,16.59V12.72h1.14l0,.42a1.48,1.48,0,0,1,.5-.37,1.65,1.65,0,0,1,.65-.14,1.39,1.39,0,0,1,1.05.4,1.55,1.55,0,0,1,.4,1.17v2.39H40.66V14.36a.76.76,0,0,0-.16-.51.59.59,0,0,0-.45-.19.72.72,0,0,0-.59.26,1,1,0,0,0-.2.59v2.08Z" transform="translate(-8.43 -11.09)"/><path class="cls-1" d="M45.79,15.42l.49.75-.29.19a2.72,2.72,0,0,1-.56.25,2.62,2.62,0,0,1-.85.11,2.29,2.29,0,0,1-1.14-.26,1.83,1.83,0,0,1-.73-.73,2.28,2.28,0,0,1-.26-1.09,2.18,2.18,0,0,1,.24-1,1.76,1.76,0,0,1,.68-.75,2,2,0,0,1,1.08-.29,1.83,1.83,0,0,1,1,.29,1.71,1.71,0,0,1,.64.78,2.78,2.78,0,0,1,.22,1.15V15H43.61a.72.72,0,0,0,.28.54,1.05,1.05,0,0,0,.73.24,1.77,1.77,0,0,0,.75-.13A2.66,2.66,0,0,0,45.79,15.42Zm-2.18-1.17h1.63a.68.68,0,0,0-.09-.33.66.66,0,0,0-.26-.29.79.79,0,0,0-.45-.11.85.85,0,0,0-.46.11.86.86,0,0,0-.28.29A.68.68,0,0,0,43.61,14.25Z" transform="translate(-8.43 -11.09)"/><path class="cls-1" d="M46.77,16.15l.58-.75a1.83,1.83,0,0,0,.5.29,1.91,1.91,0,0,0,.6.11,1.13,1.13,0,0,0,.44-.07.26.26,0,0,0,.17-.25A.24.24,0,0,0,49,15.3a.86.86,0,0,0-.26-.14L48.16,15a2.8,2.8,0,0,1-.57-.22,1.3,1.3,0,0,1-.46-.37A1,1,0,0,1,47,13.8a1,1,0,0,1,.21-.64,1.57,1.57,0,0,1,.59-.42,2.16,2.16,0,0,1,.83-.15,3.23,3.23,0,0,1,.87.11,2.53,2.53,0,0,1,.68.33l-.5.78a2.87,2.87,0,0,0-.43-.22,1.42,1.42,0,0,0-.55-.1.77.77,0,0,0-.4.08.24.24,0,0,0-.12.21c0,.13.08.22.26.28l.68.21a1.66,1.66,0,0,1,.86.45,1.08,1.08,0,0,1,.28.77,1,1,0,0,1-.25.69,1.47,1.47,0,0,1-.64.41,2.53,2.53,0,0,1-.83.13,3.14,3.14,0,0,1-1-.14A1.83,1.83,0,0,1,46.77,16.15Z" transform="translate(-8.43 -11.09)"/><path class="cls-1" d="M12.76,22.3l.85.78a2.47,2.47,0,0,1-.59.57,3.24,3.24,0,0,1-.8.43,3,3,0,0,1-1,.15,2.82,2.82,0,0,1-1.47-.37,2.65,2.65,0,0,1-1-1,3,3,0,0,1-.36-1.48,3,3,0,0,1,.21-1.14,2.62,2.62,0,0,1,.58-.93,2.73,2.73,0,0,1,.9-.62,2.89,2.89,0,0,1,1.16-.22,3,3,0,0,1,1.33.28,2.51,2.51,0,0,1,1,.81l-.85.81a2.05,2.05,0,0,0-.59-.55,1.48,1.48,0,0,0-.81-.21,1.48,1.48,0,0,0-1.4.86,2,2,0,0,0-.19.88,1.92,1.92,0,0,0,.19.87A1.46,1.46,0,0,0,11.3,23a1.83,1.83,0,0,0,.66-.1,1.44,1.44,0,0,0,.45-.28A4,4,0,0,0,12.76,22.3Z" transform="translate(-8.43 -11.09)"/><path class="cls-1" d="M14,22.15a2.17,2.17,0,0,1,.26-1,2,2,0,0,1,.73-.74,2.06,2.06,0,0,1,1.09-.28,2,2,0,0,1,1.08.28,1.92,1.92,0,0,1,.73.74,2.17,2.17,0,0,1,.26,1,2.14,2.14,0,0,1-.26,1,1.88,1.88,0,0,1-.73.75,2,2,0,0,1-1.08.28A2.06,2.06,0,0,1,15,23.94a2,2,0,0,1-.73-.75A2.14,2.14,0,0,1,14,22.15Zm2.08,1a.85.85,0,0,0,.51-.15,1,1,0,0,0,.31-.38,1.25,1.25,0,0,0,.1-.51,1.24,1.24,0,0,0-.1-.5,1.15,1.15,0,0,0-.31-.38.94.94,0,0,0-1,0,1,1,0,0,0-.32.38,1.24,1.24,0,0,0-.1.5,1.25,1.25,0,0,0,.1.51.89.89,0,0,0,.83.53Z" transform="translate(-8.43 -11.09)"/><path class="cls-1" d="M18.77,24.09V20.22H19.9l0,.42a1.39,1.39,0,0,1,.5-.37,1.61,1.61,0,0,1,.64-.14,1.41,1.41,0,0,1,1.06.4,1.59,1.59,0,0,1,.4,1.17v2.39H21.35V21.86a.76.76,0,0,0-.16-.51.59.59,0,0,0-.45-.19.7.7,0,0,0-.59.26A.9.9,0,0,0,20,22v2.08Z" transform="translate(-8.43 -11.09)"/><path class="cls-1" d="M23.32,24.09V20.22h1.14l0,.42a1.59,1.59,0,0,1,.5-.37,1.65,1.65,0,0,1,.65-.14,1.39,1.39,0,0,1,1.05.4,1.55,1.55,0,0,1,.4,1.17v2.39H25.9V21.86a.76.76,0,0,0-.16-.51.59.59,0,0,0-.45-.19.72.72,0,0,0-.59.26,1,1,0,0,0-.2.59v2.08Z" transform="translate(-8.43 -11.09)"/><path class="cls-1" d="M31,22.92l.49.75-.29.19a2.72,2.72,0,0,1-.56.25,2.62,2.62,0,0,1-.85.11A2.29,2.29,0,0,1,28.68,24a1.83,1.83,0,0,1-.73-.73,2.28,2.28,0,0,1-.26-1.09,2.18,2.18,0,0,1,.24-1,1.84,1.84,0,0,1,.68-.76,2.06,2.06,0,0,1,1.08-.28,1.91,1.91,0,0,1,1,.28,1.79,1.79,0,0,1,.64.79,2.74,2.74,0,0,1,.22,1.15v.2H28.85a.72.72,0,0,0,.28.54,1.05,1.05,0,0,0,.73.24,1.77,1.77,0,0,0,.75-.13A2.26,2.26,0,0,0,31,22.92Zm-2.18-1.17h1.63a.75.75,0,0,0-.09-.34.69.69,0,0,0-.26-.28.79.79,0,0,0-.45-.12.85.85,0,0,0-.46.12.93.93,0,0,0-.28.28A.75.75,0,0,0,28.85,21.75Z" transform="translate(-8.43 -11.09)"/><path class="cls-1" d="M35,22.8l.69.78A1.88,1.88,0,0,1,35,24a2.06,2.06,0,0,1-.93.19A2.28,2.28,0,0,1,33,24a1.92,1.92,0,0,1-.73-.74A2.1,2.1,0,0,1,32,22.15a2.06,2.06,0,0,1,1-1.78,2,2,0,0,1,1.07-.28,2.36,2.36,0,0,1,.92.17,1.85,1.85,0,0,1,.65.47L35,21.5a1.18,1.18,0,0,0-.32-.26,1,1,0,0,0-.5-.12.81.81,0,0,0-.49.15.85.85,0,0,0-.32.38,1.17,1.17,0,0,0,0,1,.94.94,0,0,0,.32.39.81.81,0,0,0,.49.15,1,1,0,0,0,.51-.12A1.81,1.81,0,0,0,35,22.8Z" transform="translate(-8.43 -11.09)"/><path class="cls-1" d="M36.63,22.62V21.16H36v-.94h.61V19h1.18v1.27h1v.94h-1v1.52a.67.67,0,0,0,.12.43.38.38,0,0,0,.35.16.75.75,0,0,0,.31-.06,2.07,2.07,0,0,0,.25-.15l.48.73a2,2,0,0,1-1.22.44,1.71,1.71,0,0,1-.88-.2,1.17,1.17,0,0,1-.46-.57A2.47,2.47,0,0,1,36.63,22.62Z" transform="translate(-8.43 -11.09)"/></svg>